<mxfile host="Electron" agent="Mozilla/5.0 (Macintosh; Intel Mac OS X 10_15_7) AppleWebKit/537.36 (KHTML, like Gecko) draw.io/26.0.4 Chrome/128.0.6613.186 Electron/32.2.5 Safari/537.36" version="26.0.4">
  <diagram name="第 1 页" id="fhstzKK8-E9QKqBoT_mH">
    <mxGraphModel dx="904" dy="674" grid="0" gridSize="10" guides="1" tooltips="1" connect="1" arrows="1" fold="1" page="0" pageScale="1" pageWidth="827" pageHeight="1169" math="0" shadow="0">
      <root>
        <mxCell id="0" />
        <mxCell id="1" parent="0" />
        <mxCell id="IydgL9ZS-PDwWwdMRRfb-1" value="Kernel" style="ellipse;whiteSpace=wrap;html=1;fillColor=#e1d5e7;strokeColor=#9673a6;fontSize=14;fontStyle=1" parent="1" vertex="1">
          <mxGeometry x="120" y="160" width="120" height="80" as="geometry" />
        </mxCell>
        <mxCell id="IydgL9ZS-PDwWwdMRRfb-2" value="Single-Stepping into Kernel State" style="ellipse;whiteSpace=wrap;html=1;fillColor=#dae8fc;strokeColor=#6c8ebf;fontSize=14;fontStyle=0" parent="1" vertex="1">
          <mxGeometry x="120" y="370" width="120" height="80" as="geometry" />
        </mxCell>
        <mxCell id="IydgL9ZS-PDwWwdMRRfb-3" value="User Process" style="ellipse;whiteSpace=wrap;html=1;fillColor=#e1d5e7;strokeColor=#9673a6;fontSize=14;fontStyle=1" parent="1" vertex="1">
          <mxGeometry x="414" y="370" width="120" height="80" as="geometry" />
        </mxCell>
        <mxCell id="IydgL9ZS-PDwWwdMRRfb-4" value="Single-Stepping into User State" style="ellipse;whiteSpace=wrap;html=1;fillColor=#dae8fc;strokeColor=#6c8ebf;fontSize=14;fontStyle=0;verticalAlign=middle;" parent="1" vertex="1">
          <mxGeometry x="414" y="158.13" width="120" height="80" as="geometry" />
        </mxCell>
        <mxCell id="IydgL9ZS-PDwWwdMRRfb-5" value="" style="shape=flexArrow;endArrow=classic;html=1;rounded=0;fillColor=#d5e8d4;strokeColor=#82b366;fontSize=14;width=8;endSize=4.24;" parent="1" edge="1">
          <mxGeometry width="50" height="50" relative="1" as="geometry">
            <mxPoint x="250" y="200" as="sourcePoint" />
            <mxPoint x="410" y="200" as="targetPoint" />
          </mxGeometry>
        </mxCell>
        <mxCell id="IydgL9ZS-PDwWwdMRRfb-6" value="" style="shape=flexArrow;endArrow=classic;html=1;rounded=0;fillColor=#d5e8d4;strokeColor=#82b366;fontSize=14;width=8.666666666666666;endSize=3.8666666666666667;" parent="1" edge="1">
          <mxGeometry width="50" height="50" relative="1" as="geometry">
            <mxPoint x="410" y="410" as="sourcePoint" />
            <mxPoint x="250" y="410" as="targetPoint" />
            <Array as="points">
              <mxPoint x="310" y="410" />
            </Array>
          </mxGeometry>
        </mxCell>
        <mxCell id="IydgL9ZS-PDwWwdMRRfb-7" value="" style="shape=flexArrow;endArrow=classic;html=1;rounded=0;fillColor=#d5e8d4;strokeColor=#82b366;fontSize=14;width=8.333333333333334;endSize=5.333333333333334;" parent="1" edge="1">
          <mxGeometry width="50" height="50" relative="1" as="geometry">
            <mxPoint x="473.75" y="250" as="sourcePoint" />
            <mxPoint x="473.75" y="360" as="targetPoint" />
          </mxGeometry>
        </mxCell>
        <mxCell id="IydgL9ZS-PDwWwdMRRfb-8" value="" style="shape=flexArrow;endArrow=classic;html=1;rounded=0;fillColor=#d5e8d4;strokeColor=#82b366;fontSize=14;width=8.333333333333334;endSize=4.775;" parent="1" edge="1">
          <mxGeometry width="50" height="50" relative="1" as="geometry">
            <mxPoint x="180" y="360" as="sourcePoint" />
            <mxPoint x="180" y="250" as="targetPoint" />
          </mxGeometry>
        </mxCell>
        <mxCell id="IydgL9ZS-PDwWwdMRRfb-9" value="" style="shape=flexArrow;endArrow=classic;html=1;rounded=0;fillColor=light-dark(#9bc299, #1f2f1e);strokeColor=#82b366;fontSize=14;exitX=0.511;exitY=1.081;exitDx=0;exitDy=0;exitPerimeter=0;" parent="1" source="IydgL9ZS-PDwWwdMRRfb-10" edge="1">
          <mxGeometry width="50" height="50" relative="1" as="geometry">
            <mxPoint x="180" y="80" as="sourcePoint" />
            <mxPoint x="179.5" y="150" as="targetPoint" />
          </mxGeometry>
        </mxCell>
        <mxCell id="IydgL9ZS-PDwWwdMRRfb-10" value="initial" style="text;html=1;align=center;verticalAlign=middle;resizable=0;points=[];autosize=1;strokeColor=none;fillColor=none;fillStyle=auto;fontColor=#333333;fontSize=14;" parent="1" vertex="1">
          <mxGeometry x="150" y="10" width="60" height="30" as="geometry" />
        </mxCell>
        <mxCell id="IydgL9ZS-PDwWwdMRRfb-15" value="Check if Kernel Border" style="whiteSpace=wrap;html=1;fillColor=#fff2cc;strokeColor=#d6b656;fontSize=14;" parent="1" vertex="1">
          <mxGeometry x="20" y="90" width="100" height="40" as="geometry" />
        </mxCell>
        <mxCell id="IydgL9ZS-PDwWwdMRRfb-16" value="Interrupt" style="whiteSpace=wrap;html=1;fillColor=light-dark(#fbe1e0, #512d2b);strokeColor=#FF9999;fontSize=14;" parent="1" vertex="1">
          <mxGeometry x="20" y="130" width="100" height="30" as="geometry" />
        </mxCell>
        <mxCell id="IydgL9ZS-PDwWwdMRRfb-17" value="Check if&lt;br&gt;User State" style="whiteSpace=wrap;html=1;fillColor=#fff2cc;strokeColor=#d6b656;fontSize=14;" parent="1" vertex="1">
          <mxGeometry x="530" y="88.13" width="110" height="40" as="geometry" />
        </mxCell>
        <mxCell id="IydgL9ZS-PDwWwdMRRfb-18" value="Interrupt" style="whiteSpace=wrap;html=1;strokeColor=light-dark(#ff9999, #572b2b);fillColor=light-dark(#fbe1e0, #ededed);fontSize=14;" parent="1" vertex="1">
          <mxGeometry x="530" y="128.13" width="110" height="30" as="geometry" />
        </mxCell>
        <mxCell id="IydgL9ZS-PDwWwdMRRfb-23" value="&lt;font&gt;Check if User Process Border&lt;/font&gt;" style="whiteSpace=wrap;html=1;fillColor=#fff2cc;strokeColor=#d6b656;fontSize=14;" parent="1" vertex="1">
          <mxGeometry x="530" y="458.75" width="110" height="52.5" as="geometry" />
        </mxCell>
        <mxCell id="IydgL9ZS-PDwWwdMRRfb-24" value="Interrupt" style="whiteSpace=wrap;html=1;fillColor=light-dark(#fbe1e0, #ededed);strokeColor=light-dark(#ff9999, #572b2b);fontSize=14;" parent="1" vertex="1">
          <mxGeometry x="530" y="511.25" width="110" height="30" as="geometry" />
        </mxCell>
        <mxCell id="IydgL9ZS-PDwWwdMRRfb-25" value="Check if&lt;br&gt;Kernel State" style="whiteSpace=wrap;html=1;fillColor=#fff2cc;strokeColor=#d6b656;fontSize=14;" parent="1" vertex="1">
          <mxGeometry x="70" y="461.25" width="100" height="50" as="geometry" />
        </mxCell>
        <mxCell id="IydgL9ZS-PDwWwdMRRfb-26" value="Interrupt" style="whiteSpace=wrap;html=1;fillColor=light-dark(#fbe1e0, #ededed);strokeColor=light-dark(#ff9999, #572b2b);fontSize=14;" parent="1" vertex="1">
          <mxGeometry x="70" y="511.25" width="100" height="30" as="geometry" />
        </mxCell>
        <mxCell id="IydgL9ZS-PDwWwdMRRfb-27" value="&lt;font&gt;Consecutive Single-Stepping&lt;/font&gt;" style="whiteSpace=wrap;html=1;fillColor=#d5e8d4;strokeColor=#82b366;fontSize=14;" parent="1" vertex="1">
          <mxGeometry x="270" y="90" width="120" height="45" as="geometry" />
        </mxCell>
        <mxCell id="IydgL9ZS-PDwWwdMRRfb-28" value="At Kernel Border" style="whiteSpace=wrap;html=1;fillColor=light-dark(#fbe1e0, #512d2b);strokeColor=light-dark(#ff9999, #572b2b);fontSize=14;" parent="1" vertex="1">
          <mxGeometry x="270" y="135" width="120" height="45" as="geometry" />
        </mxCell>
        <mxCell id="IydgL9ZS-PDwWwdMRRfb-29" value="&lt;font&gt;Consecutive Single-Stepping&lt;/font&gt;" style="whiteSpace=wrap;html=1;fillColor=#d5e8d4;strokeColor=#82b366;fontSize=14;" parent="1" vertex="1">
          <mxGeometry x="270" y="440" width="130" height="40" as="geometry" />
        </mxCell>
        <mxCell id="IydgL9ZS-PDwWwdMRRfb-30" value="&lt;font&gt;At User Process Border&lt;/font&gt;" style="whiteSpace=wrap;html=1;fillColor=light-dark(#fbdfdf, #ededed);strokeColor=light-dark(#ff9999, #572b2b);fontSize=14;" parent="1" vertex="1">
          <mxGeometry x="270" y="480" width="130" height="40" as="geometry" />
        </mxCell>
        <mxCell id="IydgL9ZS-PDwWwdMRRfb-32" value="&lt;font&gt;Breakpoint Group Switching&lt;/font&gt;" style="whiteSpace=wrap;html=1;fillColor=#d5e8d4;strokeColor=#82b366;fontSize=14;" parent="1" vertex="1">
          <mxGeometry x="20" y="270" width="140" height="40" as="geometry" />
        </mxCell>
        <mxCell id="IydgL9ZS-PDwWwdMRRfb-33" value="At Kernel State" style="whiteSpace=wrap;html=1;fillColor=light-dark(#fbe1e0, #ededed);strokeColor=light-dark(#ff9999, #572b2b);fontSize=14;" parent="1" vertex="1">
          <mxGeometry x="20" y="310" width="140" height="30" as="geometry" />
        </mxCell>
        <mxCell id="IydgL9ZS-PDwWwdMRRfb-34" value="&lt;font&gt;Breakpoint Group Switching&lt;/font&gt;" style="whiteSpace=wrap;html=1;fillColor=#d5e8d4;strokeColor=#82b366;fontSize=14;" parent="1" vertex="1">
          <mxGeometry x="489" y="270" width="150" height="40" as="geometry" />
        </mxCell>
        <mxCell id="IydgL9ZS-PDwWwdMRRfb-35" value="At User State" style="whiteSpace=wrap;html=1;fillColor=light-dark(#fbe1e0, #ededed);strokeColor=light-dark(#ff9999, #572b2b);fontSize=14;" parent="1" vertex="1">
          <mxGeometry x="489" y="310" width="150" height="30" as="geometry" />
        </mxCell>
        <mxCell id="ELokuc6IPtV3_dqG3IWx-5" value="" style="html=1;shadow=0;dashed=0;align=center;verticalAlign=middle;shape=mxgraph.arrows2.uTurnArrow;dy=3.84;arrowHead=27.51;dx2=19.98;rotation=-180;fillColor=#ffe6cc;strokeColor=#d79b00;fontSize=14;" parent="1" vertex="1">
          <mxGeometry x="544" y="172.5" width="40" height="70" as="geometry" />
        </mxCell>
        <mxCell id="ELokuc6IPtV3_dqG3IWx-12" value="" style="html=1;shadow=0;dashed=0;align=center;verticalAlign=middle;shape=mxgraph.arrows2.uTurnArrow;dy=3.7;arrowHead=28.06;dx2=13.32;rotation=0;fillColor=#ffe6cc;strokeColor=#d79b00;fontSize=14;" parent="1" vertex="1">
          <mxGeometry x="75" y="166.88" width="30" height="71.25" as="geometry" />
        </mxCell>
        <mxCell id="HOVzQYM6vkepmFy-ajo5-10" value="" style="html=1;shadow=0;dashed=0;align=center;verticalAlign=middle;shape=mxgraph.arrows2.uTurnArrow;dy=3.7;arrowHead=28.06;dx2=13.32;rotation=0;fillColor=#ffe6cc;strokeColor=#d79b00;fontSize=14;" parent="1" vertex="1">
          <mxGeometry x="75" y="370" width="30" height="71.25" as="geometry" />
        </mxCell>
        <mxCell id="HOVzQYM6vkepmFy-ajo5-11" value="" style="html=1;shadow=0;dashed=0;align=center;verticalAlign=middle;shape=mxgraph.arrows2.uTurnArrow;dy=3.84;arrowHead=27.51;dx2=19.98;rotation=-180;fillColor=#ffe6cc;strokeColor=#d79b00;fontSize=14;" parent="1" vertex="1">
          <mxGeometry x="559" y="380" width="40" height="70" as="geometry" />
        </mxCell>
      </root>
    </mxGraphModel>
  </diagram>
</mxfile>
